<svg viewBox="0 0 18 18" class="" role="presentation" focusable="false" xmlns="http://www.w3.org/2000/svg" xmlns:xlink="http://www.w3.org/1999/xlink" id="FxSymbol0-124" data-type="1"><g><title></title><g clip-path="url(#7ad5f189-ca63-42c3-a21b-4975dc46a672)"><path d="M17.547 15.2c-.161.7-1.035 1.39-2.617 1.928a21.59 21.59 0 0 1-12.121.017C1.352 16.627.566 15.97.443 15.3c-.021-.118 0-1.966 0-1.966l17.13-.16s-.007 1.936-.026 2.026Z" fill="#5EA0EF"></path><path d="M9.03 16.259c4.735-.048 8.56-1.413 8.543-3.05-.016-1.637-3.867-2.926-8.602-2.878-4.734.048-8.56 1.413-8.543 3.05.017 1.637 3.868 2.925 8.602 2.878Z" fill="#50E6FF"></path><path d="M13.364 12.978a.482.482 0 0 1-.5.455H5.146a.482.482 0 0 1-.5-.455V.456a.48.48 0 0 1 .5-.456h7.715a.481.481 0 0 1 .5.455l.003 12.523Z" fill="url(#7ad5f189-ca63-42c3-a21b-4975dc46a671)"></path><path d="M11.212 6.792h-4.34a1 1 0 0 1-.947-1.044A1 1 0 0 1 6.872 4.7h4.34a1 1 0 0 1 .948 1.045 1 1 0 0 1-.948 1.046Zm.948-4.151a1 1 0 0 0-.948-1.04h-4.34a1 1 0 0 0-.947 1.04 1 1 0 0 0 .947 1.045h4.34a1 1 0 0 0 .948-1.045Z" fill="#552F99"></path><path d="M10.94 1.94a.7.7 0 1 1 0 1.4.7.7 0 0 1 0-1.4Zm-.7 3.8a.7.7 0 1 0 .05-.266.7.7 0 0 0-.052.27l.001-.005Z" fill="#50E6FF"></path></g><defs></defs></g><defs>
<linearGradient id="7ad5f189-ca63-42c3-a21b-4975dc46a671" x1="9.004" y1="0" x2="9.004" y2="13.433" gradientUnits="userSpaceOnUse"><stop stop-color="#A67AF4"></stop><stop offset=".999" stop-color="#773ADC"></stop></linearGradient>
<clipPath id="7ad5f189-ca63-42c3-a21b-4975dc46a672"><path d="M0 0h18v18H0z" class="msportalfx-svg-c01"></path></clipPath>
</defs>
</svg>