<svg viewBox="0 0 18 18" class="" role="presentation" focusable="false" xmlns="http://www.w3.org/2000/svg" xmlns:xlink="http://www.w3.org/1999/xlink" id="FxSymbol0-06a" data-type="1"><g><title></title><path d="M17.947 15.105c-.167.733-1.083 1.456-2.738 2.018a22.6 22.6 0 0 1-12.69.018C.994 16.6.171 15.917.042 15.213c-.022-.124 0-2.058 0-2.058l17.935-.166s-.009 2.026-.03 2.116Z" fill="#5EA0EF"></path><path d="M9.032 16.218c4.957-.05 8.962-1.48 8.945-3.193-.017-1.714-4.05-3.063-9.007-3.013-4.957.05-8.961 1.48-8.944 3.193.017 1.714 4.05 3.063 9.006 3.013Z" fill="#50E6FF"></path><path d="M6.322.041 3.875.494v3.337l2.447.522 2.455-.984V.879L6.322.041Z" fill="url(#57fe862e-be06-42f8-9d8f-356859a63266)"></path><path d="M11.617.084 9.171.537v3.337l2.446.522 2.447-.993V.923l-2.447-.84Z" fill="url(#57fe862e-be06-42f8-9d8f-356859a63267)"></path><path d="m3.815 4.644-2.447.453v3.337l2.447.522 2.455-.984v-2.49l-2.455-.838Z" fill="url(#57fe862e-be06-42f8-9d8f-356859a63268)"></path><path d="m9.094 4.61-2.447.453V8.4l2.447.531 2.446-.993v-2.49L9.094 4.61Z" fill="url(#57fe862e-be06-42f8-9d8f-356859a63269)"></path><path d="m14.372 4.652-2.447.454v3.336l2.447.522 2.456-.984V5.491l-2.456-.839Z" fill="url(#57fe862e-be06-42f8-9d8f-356859a6326a)"></path><path d="m6.262 9.298-2.447.445v3.336l2.447.531 2.455-.993v-2.481l-2.455-.838Z" fill="url(#57fe862e-be06-42f8-9d8f-356859a6326b)"></path><path d="m11.55 9.332-2.448.453v3.337l2.447.522 2.455-.984v-2.49l-2.455-.838Z" fill="url(#57fe862e-be06-42f8-9d8f-356859a6326c)"></path><path d="M3.875.494v3.337l2.472.522V.075L3.875.494Zm1.044 3.08-.693-.137V.871L4.92.76v2.814ZM6 3.771l-.8-.128V.708L6 .571v3.2ZM9.171.537v3.337l2.455.522V.118L9.171.537Zm1.035 3.08-.693-.137V.914L10.206.8v2.817Zm1.078.2-.8-.128V.751l.8-.145v3.21ZM1.36 5.1v3.308l2.472.522V4.652L1.36 5.1ZM2.4 8.186l-.7-.146V5.474l.693-.12.007 2.832Zm1.086.222-.8-.128V5.311l.8-.137v3.234Zm3.161-3.345v3.345l2.464.522V4.652l-2.464.41ZM7.682 8.15l-.693-.145V5.439l.693-.119v2.83Zm1.078.189-.8-.129V5.277l.8-.137v3.2Zm3.165-3.234v3.3l2.475.524V4.652l-2.475.454Zm1.044 3.088-.693-.145V5.482l.693-.12v2.832Zm1.078.188-.795-.128V5.32l.8-.137-.005 3.199ZM3.815 9.743v3.336l2.473.531V9.264l-2.473.479Zm1.044 3.088-.693-.145v-2.567L4.86 10v2.831Zm1.078.2-.8-.128V9.957l.8-.137v3.211ZM9.1 9.785v3.337l2.473.522V9.366L9.1 9.785Zm1.044 3.089-.693-.146v-2.566l.693-.12v2.832Zm1.078.188-.8-.128V10l.8-.137v3.199Z" fill="#341A6E"></path><defs></defs></g><defs>
<linearGradient id="57fe862e-be06-42f8-9d8f-356859a63266" x1="3.875" y1="2.197" x2="8.777" y2="2.197" gradientUnits="userSpaceOnUse"><stop stop-color="#B77AF4"></stop><stop offset="1" stop-color="#773ADC"></stop></linearGradient>
<linearGradient id="57fe862e-be06-42f8-9d8f-356859a63267" x1="9.171" y1="2.24" x2="14.064" y2="2.24" gradientUnits="userSpaceOnUse"><stop stop-color="#B77AF4"></stop><stop offset="1" stop-color="#773ADC"></stop></linearGradient>
<linearGradient id="57fe862e-be06-42f8-9d8f-356859a63268" x1="1.368" y1="6.8" x2="6.27" y2="6.8" gradientUnits="userSpaceOnUse"><stop stop-color="#B77AF4"></stop><stop offset="1" stop-color="#773ADC"></stop></linearGradient>
<linearGradient id="57fe862e-be06-42f8-9d8f-356859a63269" x1="6.647" y1="6.77" x2="11.54" y2="6.77" gradientUnits="userSpaceOnUse"><stop stop-color="#B77AF4"></stop><stop offset="1" stop-color="#773ADC"></stop></linearGradient>
<linearGradient id="57fe862e-be06-42f8-9d8f-356859a6326a" x1="11.925" y1="6.808" x2="16.828" y2="6.808" gradientUnits="userSpaceOnUse"><stop stop-color="#B77AF4"></stop><stop offset="1" stop-color="#773ADC"></stop></linearGradient>
<linearGradient id="57fe862e-be06-42f8-9d8f-356859a6326b" x1="3.815" y1="11.454" x2="8.717" y2="11.454" gradientUnits="userSpaceOnUse"><stop stop-color="#B77AF4"></stop><stop offset="1" stop-color="#773ADC"></stop></linearGradient>
<linearGradient id="57fe862e-be06-42f8-9d8f-356859a6326c" x1="9.102" y1="11.488" x2="14.004" y2="11.488" gradientUnits="userSpaceOnUse"><stop stop-color="#B77AF4"></stop><stop offset="1" stop-color="#773ADC"></stop></linearGradient>
</defs>
</svg>