<svg xmlns="http://www.w3.org/2000/svg" viewBox="-16.88 -34.00 63.20 63.20" width="336" height="336">
<defs><radialGradient id="gs994" cx="50%" cy="50%" r="50%"><stop offset="0%" stop-color="#000" stop-opacity="0.3"/><stop offset="100%" stop-color="#000" stop-opacity="0"/></radialGradient><linearGradient id="gg995" x1="0%" y1="0%" x2="0%" y2="100%"><stop offset="0%" stop-color="#7e8389" stop-opacity="0.82"/><stop offset="100%" stop-color="#151d29" stop-opacity="0.60"/></linearGradient><linearGradient id="gg996" x1="0%" y1="0%" x2="100%" y2="0%"><stop offset="0%" stop-color="#838993" stop-opacity="0.82"/><stop offset="100%" stop-color="#1E293B" stop-opacity="0.60"/></linearGradient><linearGradient id="gg997" x1="0%" y1="0%" x2="100%" y2="0%"><stop offset="0%" stop-color="#969ba3" stop-opacity="0.92"/><stop offset="100%" stop-color="#404958" stop-opacity="0.70"/></linearGradient><linearGradient id="gg998" x1="0%" y1="0%" x2="0%" y2="100%"><stop offset="0%" stop-color="#969ba3" stop-opacity="0.62"/><stop offset="100%" stop-color="#404958" stop-opacity="0.40"/></linearGradient><linearGradient id="gg999" x1="0%" y1="0%" x2="0%" y2="100%"><stop offset="0%" stop-color="#7b7f8a" stop-opacity="0.72"/><stop offset="100%" stop-color="#0F172A" stop-opacity="0.50"/></linearGradient><linearGradient id="gg1000" x1="0%" y1="0%" x2="0%" y2="100%"><stop offset="0%" stop-color="#7b7f8a" stop-opacity="0.72"/><stop offset="100%" stop-color="#0F172A" stop-opacity="0.50"/></linearGradient><linearGradient id="gg1001" x1="0%" y1="0%" x2="0%" y2="100%"><stop offset="0%" stop-color="#7b7f8a" stop-opacity="0.72"/><stop offset="100%" stop-color="#0F172A" stop-opacity="0.50"/></linearGradient><linearGradient id="gg1002" x1="0%" y1="0%" x2="0%" y2="100%"><stop offset="0%" stop-color="#7b7f8a" stop-opacity="0.72"/><stop offset="100%" stop-color="#0F172A" stop-opacity="0.50"/></linearGradient><linearGradient id="gg1003" x1="0%" y1="0%" x2="0%" y2="100%"><stop offset="0%" stop-color="#7b7f8a" stop-opacity="0.72"/><stop offset="100%" stop-color="#0F172A" stop-opacity="0.50"/></linearGradient></defs><path d="M33.77,20.50L32.28,21.03L30.26,21.20L27.76,21.03L24.86,20.50L21.66,19.63L18.25,18.46L14.73,17.02L11.21,15.35L7.79,13.50L4.59,11.53L1.70,9.50L-0.80,7.46L-2.83,5.49L-4.33,3.64L-5.24,1.97L-5.55,0.53L-5.24,-0.64L-4.33,-1.50L-2.84,-2.03L-0.81,-2.20L1.69,-2.03L4.58,-1.50L7.78,-0.63L11.20,0.54L14.72,1.98L18.24,3.65L21.65,5.50L24.85,7.47L27.75,9.50L30.25,11.54L32.28,13.51L33.77,15.36L34.69,17.03L35.00,18.47L34.69,19.64Z" fill="url(#gs994)" stroke="none" stroke-width="0" stroke-linejoin="round"/><path d="M-1.73,1.00L29.44,19.00L29.44,-7.00L-1.73,-25.00Z" fill="url(#gg995)" stroke="none" stroke-width="0" stroke-linejoin="round"/><path d="M31.18,18.00L29.44,19.00L29.44,-7.00L31.18,-8.00Z" fill="url(#gg996)" stroke="none" stroke-width="0" stroke-linejoin="round"/><path d="M0.00,-26.00L31.18,-8.00L29.44,-7.00L-1.73,-25.00Z" fill="url(#gg997)" stroke="none" stroke-width="0" stroke-linejoin="round"/><path d="M0.00,-26.00L31.18,-8.00Z" fill="none" stroke="rgba(188,191,196,0.6)" stroke-width="0.7" stroke-linejoin="round"/><path d="M31.18,-8.00L29.44,-7.00Z" fill="none" stroke="rgba(188,191,196,0.6)" stroke-width="0.5" stroke-linejoin="round"/><path d="M31.18,18.00L31.18,-8.00Z" fill="none" stroke="rgba(255,255,255,0.18)" stroke-width="0.4" stroke-linejoin="round"/><path d="M-1.73,-19.00L29.44,-1.00L29.44,-7.00L-1.73,-25.00Z" fill="rgba(255,255,255,0.12)" stroke="none" stroke-width="0" stroke-linejoin="round"/><path d="M-1.73,1.00L29.44,19.00L29.44,-7.00L-1.73,-25.00Z" fill="none" stroke="rgba(255,255,255,0.15)" stroke-width="0.5" stroke-linejoin="round"/><path d="M31.18,18.00L29.44,19.00L29.44,-7.00L31.18,-8.00Z" fill="none" stroke="rgba(255,255,255,0.12)" stroke-width="0.5" stroke-linejoin="round"/><path d="M0.00,-26.00L31.18,-8.00L29.44,-7.00L-1.73,-25.00Z" fill="none" stroke="rgba(255,255,255,0.2)" stroke-width="0.5" stroke-linejoin="round"/><path d="M-0.87,-21.50L28.58,-4.50L28.58,-6.50L-0.87,-23.50Z" fill="url(#gg998)" stroke="none" stroke-width="0" stroke-linejoin="round"/><path d="M-0.87,-21.50L28.58,-4.50L28.58,-6.50L-0.87,-23.50Z" fill="none" stroke="rgba(255,255,255,0.15)" stroke-width="0.4" stroke-linejoin="round"/><path d="M0.00,-10.00L12.99,-2.50L12.99,-12.50L0.00,-20.00Z" fill="url(#gg999)" stroke="none" stroke-width="0" stroke-linejoin="round"/><path d="M0.87,-9.50L2.60,-8.50L2.60,-14.50L0.87,-15.50Z" fill="rgba(96,165,250,0.6)" stroke="none" stroke-width="0" stroke-linejoin="round"/><path d="M3.29,-8.10L5.02,-7.10L5.02,-15.10L3.29,-16.10Z" fill="rgba(96,165,250,0.6)" stroke="none" stroke-width="0" stroke-linejoin="round"/><path d="M5.72,-6.70L7.45,-5.70L7.45,-9.70L5.72,-10.70Z" fill="rgba(96,165,250,0.6)" stroke="none" stroke-width="0" stroke-linejoin="round"/><path d="M8.14,-5.30L9.87,-4.30L9.87,-14.30L8.14,-15.30Z" fill="rgba(96,165,250,0.6)" stroke="none" stroke-width="0" stroke-linejoin="round"/><path d="M10.57,-3.90L12.30,-2.90L12.30,-9.90L10.57,-10.90Z" fill="rgba(96,165,250,0.6)" stroke="none" stroke-width="0" stroke-linejoin="round"/><path d="M14.72,-1.50L28.58,6.50L28.58,-3.50L14.72,-11.50Z" fill="url(#gg1000)" stroke="none" stroke-width="0" stroke-linejoin="round"/><path d="M15.59,-5.00L19.05,-6.00L22.52,0.00L25.98,-3.00L27.71,0.00Z" fill="none" stroke="rgba(74,222,128,0.7)" stroke-width="0.8" stroke-linejoin="round"/><path d="M0.00,0.00L8.66,5.00L8.66,-3.00L0.00,-8.00Z" fill="url(#gg1001)" stroke="none" stroke-width="0" stroke-linejoin="round"/><path d="M0.87,-2.50L4.33,-0.50L4.33,-4.50L0.87,-6.50Z" fill="rgba(248,113,113,0.65)" stroke="none" stroke-width="0" stroke-linejoin="round"/><path d="M9.53,5.50L18.19,10.50L18.19,2.50L9.53,-2.50Z" fill="url(#gg1002)" stroke="none" stroke-width="0" stroke-linejoin="round"/><path d="M10.39,3.00L13.86,5.00L13.86,1.00L10.39,-1.00Z" fill="rgba(251,191,36,0.65)" stroke="none" stroke-width="0" stroke-linejoin="round"/><path d="M19.05,11.00L27.71,16.00L27.71,8.00L19.05,3.00Z" fill="url(#gg1003)" stroke="none" stroke-width="0" stroke-linejoin="round"/><path d="M19.92,8.50L23.38,10.50L23.38,6.50L19.92,4.50Z" fill="rgba(74,222,128,0.65)" stroke="none" stroke-width="0" stroke-linejoin="round"/>
</svg>
